<svg width="420" height="77" viewBox="0 0 420 77" fill="none" xmlns="http://www.w3.org/2000/svg">
<g clip-path="url(#clip0_115_230)">
<g clip-path="url(#clip1_115_230)">
<path d="M163.18 2.08413C160.432 2.08412 157.797 3.16716 155.852 5.09568C153.907 7.02419 152.811 9.64069 152.805 12.3712V42.4152V72.4592H173.531V12.3712C173.531 11.0203 173.263 9.68259 172.743 8.4345C172.223 7.18642 171.46 6.05238 170.499 5.09714C169.538 4.1419 168.397 3.38416 167.141 2.86718C165.885 2.35021 164.539 2.08413 163.18 2.08413ZM131.885 2.08413H101.848C100.445 2.01675 99.0427 2.2332 97.7264 2.72038C96.4101 3.20755 95.207 3.95529 94.19 4.91828C93.1731 5.88127 92.3636 7.03945 91.8104 8.32262C91.2572 9.60579 90.972 10.9872 90.972 12.3832C90.972 13.7792 91.2572 15.1606 91.8104 16.4438C92.3636 17.727 93.1731 18.8852 94.19 19.8481C95.207 20.8111 96.4101 21.5589 97.7264 22.046C99.0427 22.5332 100.445 22.7497 101.848 22.6823H122.574C123.12 22.6823 123.661 22.7892 124.166 22.997C124.671 23.2047 125.129 23.5093 125.515 23.8931C125.902 24.277 126.208 24.7328 126.417 25.2343C126.626 25.7359 126.734 26.2735 126.734 26.8164V72.4832H147.46V17.5868C147.463 15.5521 147.063 13.5368 146.281 11.656C145.5 9.77529 144.353 8.06609 142.907 6.62622C141.46 5.18634 139.742 4.04404 137.851 3.26467C135.96 2.48529 133.932 2.08412 131.885 2.08413ZM217.885 52.7023C214.804 52.707 211.79 51.8033 209.226 50.1053C206.661 48.4074 204.661 45.9916 203.479 43.1637C202.296 40.3358 201.984 37.2228 202.582 34.2186C203.181 31.2145 204.662 28.4542 206.839 26.2871C209.016 24.1199 211.792 22.6433 214.813 22.0441C217.835 21.4449 220.968 21.75 223.815 22.9209C226.663 24.0917 229.097 26.0756 230.809 28.6216C232.522 31.1676 233.436 34.1612 233.436 37.2236C233.436 41.3246 231.798 45.2581 228.882 48.1602C225.967 51.0623 222.012 52.6959 217.885 52.7023ZM268.527 2.08413C265.78 2.08412 263.145 3.16716 261.2 5.09568C259.255 7.02419 258.159 9.64069 258.152 12.3712V27.4172H251.84C249.478 19.3286 244.272 12.3513 237.171 7.75448C230.07 3.15768 221.544 1.24673 213.145 2.36922C204.746 3.49171 197.031 7.57306 191.404 13.8709C185.777 20.1688 182.611 28.2648 182.483 36.6863C182.354 45.1079 185.272 53.2954 190.704 59.7598C196.137 66.2243 203.724 70.536 212.085 71.9109C220.446 73.2858 229.026 71.6324 236.264 67.2515C243.502 62.8706 248.918 56.0533 251.526 48.0394H258.152V72.3871H278.878V12.2991C278.859 9.5833 277.76 6.98523 275.821 5.0716C273.882 3.15797 271.26 2.08406 268.527 2.08413ZM304.659 26.8164C304.659 25.7241 305.094 24.6762 305.869 23.9016C306.644 23.127 307.695 22.6886 308.795 22.6823H315.397V51.7649H308.795C307.714 51.7652 306.677 51.3454 305.904 50.5953C305.131 49.8452 304.684 48.8243 304.659 47.751V26.8164ZM283.86 17.5868V56.8844C283.86 58.9191 284.264 60.9339 285.048 62.8134C285.832 64.6929 286.982 66.4003 288.431 67.838C289.879 69.2756 291.599 70.4153 293.492 71.1917C295.384 71.9682 297.412 72.3662 299.459 72.3631H339.533V51.7649H333.971V22.6823H339.533V2.08413H299.459C295.322 2.08413 291.355 3.71744 288.429 6.62476C285.504 9.53209 283.86 13.4753 283.86 17.5868ZM408.58 52.2456C406.503 52.2408 404.471 52.8486 402.742 53.9919C401.013 55.1352 399.663 56.7627 398.865 58.6683C398.067 60.574 397.856 62.6721 398.258 64.6971C398.66 66.7222 399.658 68.5831 401.125 70.0444C402.592 71.5056 404.462 72.5015 406.499 72.9059C408.536 73.3104 410.647 73.1052 412.567 72.3164C414.486 71.5276 416.127 70.1906 417.281 68.4747C418.435 66.7587 419.052 64.741 419.052 62.6769C419.055 61.3082 418.786 59.9523 418.261 58.6868C417.737 57.4214 416.966 56.2713 415.993 55.3023C415.02 54.3334 413.865 53.5646 412.593 53.0401C411.321 52.5156 409.957 52.2456 408.58 52.2456ZM59.4525 41.8624C59.668 40.3255 59.773 38.7753 59.7669 37.2236C59.7682 35.7048 59.6713 34.1874 59.4767 32.6809H66.732V41.8624H59.4525ZM24.4092 52.7023C21.3288 52.7023 18.3176 51.7945 15.7563 50.0936C13.1951 48.3928 11.1988 45.9754 10.02 43.147C8.84115 40.3187 8.53272 37.2064 9.13368 34.2039C9.73463 31.2013 11.218 28.4433 13.3962 26.2785C15.5743 24.1138 18.3495 22.6396 21.3707 22.0423C24.3919 21.4451 27.5235 21.7516 30.3694 22.9232C33.2154 24.0947 35.6478 26.0787 37.3592 28.6241C39.0706 31.1696 39.984 34.1622 39.984 37.2236C39.9872 39.2572 39.5865 41.2714 38.8049 43.1508C38.0234 45.0302 36.8763 46.7378 35.4294 48.1757C33.9825 49.6137 32.2643 50.7537 30.3732 51.5305C28.4821 52.3072 26.4554 52.7054 24.4092 52.7023ZM77.0104 2.08413C74.263 2.08412 71.6277 3.16716 69.6827 5.09568C67.7376 7.02419 66.6417 9.64069 66.6353 12.3712V14.7747H51.6651C47.0268 9.19191 40.7675 5.1681 33.7421 3.25278C26.7167 1.33747 19.2676 1.62401 12.4122 4.07329C5.55681 6.52258 -0.370779 11.0152 -4.56105 16.9376C-8.75132 22.86 -11 29.9235 -11 37.1635C-11 44.4035 -8.75132 51.467 -4.56105 57.3894C-0.370779 63.3118 5.55681 67.8044 12.4122 70.2537C19.2676 72.703 26.7167 72.9896 33.7421 71.0742C40.7675 69.1589 47.0268 65.1351 51.6651 59.5523H66.6353V72.315H87.3614V42.271V12.227C87.3233 9.52375 86.2159 6.9441 84.2789 5.04598C82.3418 3.14786 79.7307 2.08386 77.0104 2.08413ZM368.99 2.08413C362.576 2.08413 356.424 4.6164 351.889 9.12388C347.353 13.6314 344.805 19.7448 344.805 26.1193V72.2669H365.531V26.1193C365.531 25.195 365.901 24.3086 366.558 23.655C367.216 23.0014 368.108 22.6342 369.038 22.6342C369.968 22.6342 370.86 23.0014 371.518 23.655C372.175 24.3086 372.545 25.195 372.545 26.1193V72.2669H393.271V26.1193C393.271 19.7448 390.723 13.6314 386.187 9.12388C381.652 4.6164 375.501 2.08413 369.086 2.08413" fill="#3B82F6"/>
</g>
</g>
<path d="M86 73.5H86.5V73V9.48562C86.5 6.97164 85.5491 4.97667 83.6381 3.56387C81.7657 2.17959 79.4868 1.5 76.8306 1.5C74.1745 1.5 71.8955 2.17959 70.0231 3.56387C68.1122 4.97667 67.1613 6.97164 67.1613 9.48562V25.3935H57.1165C54.5314 25.3935 52.42 26.0181 50.8383 27.3224C49.2551 28.628 48.4558 30.3326 48.4558 32.3962C48.4558 34.5059 49.2523 36.2167 50.8464 37.4764C52.4277 38.7261 54.5359 39.3232 57.1165 39.3232H67.1613V73V73.5H67.6613H86ZM3.02683 16.2625L3.03433 16.2702L3.04215 16.2775C4.51076 17.6537 6.60827 18.303 9.25243 18.303H20.7643V26.1203C20.7643 34.0847 19.4271 40.4975 16.7896 45.3911C14.1504 50.288 10.1594 54.2034 4.79623 57.1355C3.35117 57.9128 2.24542 58.7873 1.51522 59.7726L1.50854 59.7816L1.50226 59.7909C0.829531 60.7895 0.5 61.9476 0.5 63.246C0.5 65.1743 1.31299 66.7555 2.89845 67.9542C4.54073 69.2002 6.73793 69.795 9.43581 69.795C12.0382 69.795 14.8943 69.0366 17.9957 67.5533L18.0017 67.5504C21.117 66.009 24.1259 63.7548 27.0303 60.7993C29.8925 57.8982 32.2925 54.5036 34.2319 50.6191C38.552 52.9867 40.7535 57.2944 40.7535 63.6997C40.7535 65.3897 40.633 67.0281 40.3924 68.6152L40.3052 69.1901H40.8867H58.2168H58.6824L58.7156 68.7257C58.778 67.8508 58.8085 66.6017 58.8085 64.9851C58.8085 56.5099 57.0564 50.0029 53.473 45.5436C50.0461 41.2046 45.136 38.12 38.7816 36.2687C39.173 33.3415 39.3695 30.6389 39.3695 28.1619V18.303H50.7896C53.4268 18.303 55.4763 17.6567 56.8292 16.2652C58.2038 14.9139 58.9002 13.2754 58.9002 11.3759C58.9002 9.52408 58.2017 7.9131 56.8327 6.56563C55.4806 5.1219 53.4298 4.44888 50.7896 4.44888H9.25243C6.60345 4.44888 4.50321 5.12594 3.03506 6.55672L3.03376 6.558C1.65958 7.90702 0.958468 9.52059 0.958468 11.3759C0.958468 13.2304 1.6587 14.8657 3.02683 16.2625Z" fill="#3B82F6" stroke="#3B82F6"/>
<defs>
<clipPath id="clip0_115_230">
<rect width="348" height="77" fill="white" transform="translate(72)"/>
</clipPath>
<clipPath id="clip1_115_230">
<rect width="335" height="89" fill="white" transform="translate(90 -10)"/>
</clipPath>
</defs>
</svg>
